<svg xmlns="http://www.w3.org/2000/svg" viewBox="0 0 1200 675" fill="none">
  <rect width="1200" height="675" fill="#080b13"/>
  <rect x="0" y="0" width="240" height="675" fill="#111523" rx="0"/>
  <rect x="20" y="20" width="48" height="48" rx="12" fill="url(#g1)"/>
  <rect x="78" y="33" width="100" height="22" rx="4" fill="#222845"/>
  <rect x="20" y="90" width="200" height="40" rx="10" fill="#1a1f35" opacity="0.5"/>
  <rect x="20" y="140" width="200" height="40" rx="10" fill="#6366f1" opacity="0.15"/>
  <rect x="20" y="190" width="200" height="40" rx="10" fill="#1a1f35" opacity="0.5"/>
  <rect x="20" y="240" width="200" height="40" rx="10" fill="#1a1f35" opacity="0.5"/>
  <rect x="20" y="290" width="200" height="40" rx="10" fill="#1a1f35" opacity="0.5"/>
  <rect x="20" y="340" width="200" height="40" rx="10" fill="#1a1f35" opacity="0.5"/>
  <rect x="20" y="610" width="200" height="40" rx="10" fill="#1a1f35" opacity="0.5"/>
  <rect x="260" y="20" width="920" height="60" rx="12" fill="#111523"/>
  <rect x="280" y="38" width="200" height="24" rx="6" fill="#1a1f35"/>
  <rect x="1060" y="30" width="40" height="40" rx="10" fill="#1a1f35"/>
  <rect x="1110" y="28" width="40" height="44" rx="10" fill="#6366f1" opacity="0.2"/>
  <rect x="260" y="95" width="920" height="30" rx="0" fill="none"/>
  <rect x="280" y="100" width="280" height="8" rx="4" fill="#222845"/>
  <rect x="280" y="115" width="160" height="6" rx="3" fill="#1a1f35"/>
  <rect x="280" y="140" width="210" height="110" rx="16" fill="#111523"/>
  <rect x="510" y="140" width="210" height="110" rx="16" fill="#111523"/>
  <rect x="740" y="140" width="210" height="110" rx="16" fill="#111523"/>
  <rect x="970" y="140" width="210" height="110" rx="16" fill="#111523"/>
  <rect x="300" y="160" width="40" height="40" rx="10" fill="#6366f1" opacity="0.15"/>
  <rect x="530" y="160" width="40" height="40" rx="10" fill="#10b981" opacity="0.15"/>
  <rect x="760" y="160" width="40" height="40" rx="10" fill="#8b5cf6" opacity="0.15"/>
  <rect x="990" y="160" width="40" height="40" rx="10" fill="#6366f1" opacity="0.15"/>
  <rect x="300" y="210" width="60" height="8" rx="4" fill="#e0e7ff"/>
  <rect x="530" y="210" width="60" height="8" rx="4" fill="#e0e7ff"/>
  <rect x="760" y="210" width="60" height="8" rx="4" fill="#e0e7ff"/>
  <rect x="990" y="210" width="60" height="8" rx="4" fill="#e0e7ff"/>
  <rect x="300" y="225" width="80" height="6" rx="3" fill="#535b85"/>
  <rect x="530" y="225" width="80" height="6" rx="3" fill="#535b85"/>
  <rect x="760" y="225" width="80" height="6" rx="3" fill="#535b85"/>
  <rect x="990" y="225" width="80" height="6" rx="3" fill="#535b85"/>
  <rect x="280" y="270" width="620" height="210" rx="16" fill="#111523"/>
  <rect x="920" y="270" width="260" height="210" rx="16" fill="#111523"/>
  <rect x="300" y="290" width="120" height="8" rx="4" fill="#e0e7ff"/>
  <rect x="940" y="290" width="100" height="8" rx="4" fill="#e0e7ff"/>
  <rect x="280" y="500" width="200" height="100" rx="12" fill="#111523"/>
  <rect x="500" y="500" width="200" height="100" rx="12" fill="#111523"/>
  <rect x="720" y="500" width="200" height="100" rx="12" fill="#111523"/>
  <defs>
    <linearGradient id="g1" x1="0" y1="0" x2="1" y2="1">
      <stop stop-color="#6366f1"/><stop offset="1" stop-color="#4f46e5"/>
    </linearGradient>
  </defs>
</svg>
