<svg xmlns="http://www.w3.org/2000/svg" viewBox="0 0 1200 675" fill="none">
  <rect width="1200" height="675" fill="#080b13"/>
  <rect x="260" y="20" width="920" height="60" rx="12" fill="#111523"/>
  <rect x="280" y="38" width="160" height="24" rx="6" fill="#1a1f35"/>
  <rect x="1050" y="30" width="110" height="40" rx="10" fill="#6366f1" opacity="0.2"/>
  <rect x="1060" y="42" width="90" height="16" rx="4" fill="#6366f1" opacity="0.5"/>
  <rect x="280" y="95" width="300" height="40" rx="10" fill="#1a1f35"/>
  <rect x="300" y="108" width="20" height="14" rx="4" fill="#535b85"/>
  <rect x="330" y="110" width="100" height="10" rx="4" fill="#535b85"/>
  <rect x="280" y="150" width="880" height="60" rx="12" fill="#111523"/>
  <rect x="280" y="220" width="880" height="60" rx="12" fill="#111523"/>
  <rect x="280" y="290" width="880" height="60" rx="12" fill="#111523"/>
  <rect x="280" y="360" width="880" height="60" rx="12" fill="#111523"/>
  <rect x="280" y="430" width="880" height="60" rx="12" fill="#111523"/>
  <rect x="280" y="500" width="880" height="60" rx="12" fill="#111523"/>
  <rect x="300" y="165" width="36" height="30" rx="8" fill="#6366f1" opacity="0.15"/>
  <rect x="350" y="170" width="140" height="20" rx="4" fill="#e0e7ff" opacity="0.8"/>
  <rect x="530" y="173" width="30" height="14" rx="4" fill="#535b85"/>
  <rect x="600" y="173" width="40" height="14" rx="4" fill="#535b85"/>
  <rect x="940" y="170" width="70" height="18" rx="6" fill="#10b981" opacity="0.15"/>
  <rect x="1060" y="170" width="80" height="18" rx="4" fill="#535b85"/>
  <rect x="300" y="235" width="36" height="30" rx="8" fill="#8b5cf6" opacity="0.15"/>
  <rect x="350" y="240" width="140" height="20" rx="4" fill="#e0e7ff" opacity="0.8"/>
  <rect x="530" y="243" width="30" height="14" rx="4" fill="#535b85"/>
  <rect x="600" y="243" width="40" height="14" rx="4" fill="#535b85"/>
  <rect x="940" y="240" width="70" height="18" rx="6" fill="#10b981" opacity="0.15"/>
  <rect x="1060" y="240" width="80" height="18" rx="4" fill="#535b85"/>
  <rect x="300" y="305" width="36" height="30" rx="8" fill="#f59e0b" opacity="0.15"/>
  <rect x="350" y="310" width="140" height="20" rx="4" fill="#e0e7ff" opacity="0.8"/>
  <rect x="530" y="313" width="30" height="14" rx="4" fill="#535b85"/>
  <rect x="600" y="313" width="40" height="14" rx="4" fill="#535b85"/>
  <rect x="940" y="310" width="70" height="18" rx="6" fill="#6366f1" opacity="0.15"/>
  <rect x="1060" y="310" width="80" height="18" rx="4" fill="#535b85"/>
  <rect x="300" y="375" width="36" height="30" rx="8" fill="#10b981" opacity="0.15"/>
  <rect x="350" y="380" width="140" height="20" rx="4" fill="#e0e7ff" opacity="0.8"/>
  <rect x="530" y="383" width="30" height="14" rx="4" fill="#535b85"/>
  <rect x="600" y="383" width="40" height="14" rx="4" fill="#535b85"/>
  <rect x="940" y="380" width="70" height="18" rx="6" fill="#10b981" opacity="0.15"/>
  <rect x="1060" y="380" width="80" height="18" rx="4" fill="#535b85"/>
  <rect x="300" y="445" width="36" height="30" rx="8" fill="#6366f1" opacity="0.15"/>
  <rect x="350" y="450" width="140" height="20" rx="4" fill="#e0e7ff" opacity="0.8"/>
  <rect x="530" y="453" width="30" height="14" rx="4" fill="#535b85"/>
  <rect x="600" y="453" width="40" height="14" rx="4" fill="#535b85"/>
  <rect x="940" y="450" width="70" height="18" rx="6" fill="#f59e0b" opacity="0.15"/>
  <rect x="1060" y="450" width="80" height="18" rx="4" fill="#535b85"/>
  <rect x="300" y="515" width="36" height="30" rx="8" fill="#ec4899" opacity="0.15"/>
  <rect x="350" y="520" width="140" height="20" rx="4" fill="#e0e7ff" opacity="0.8"/>
  <rect x="530" y="523" width="30" height="14" rx="4" fill="#535b85"/>
  <rect x="600" y="523" width="40" height="14" rx="4" fill="#535b85"/>
  <rect x="940" y="520" width="70" height="18" rx="6" fill="#6366f1" opacity="0.15"/>
  <rect x="1060" y="520" width="80" height="18" rx="4" fill="#535b85"/>
  <rect x="280" y="580" width="250" height="40" rx="10" fill="#1a1f35"/>
  <rect x="300" y="593" width="20" height="14" rx="4" fill="#535b85"/>
  <rect x="330" y="595" width="80" height="10" rx="4" fill="#535b85"/>
</svg>
