<svg xmlns="http://www.w3.org/2000/svg" viewBox="0 0 1200 675" fill="none">
  <rect width="1200" height="675" fill="#080b13"/>
  <rect x="260" y="20" width="920" height="60" rx="12" fill="#111523"/>
  <rect x="280" y="38" width="140" height="24" rx="6" fill="#1a1f35"/>
  <rect x="1050" y="30" width="110" height="40" rx="10" fill="#6366f1" opacity="0.2"/>
  <rect x="1060" y="42" width="90" height="16" rx="4" fill="#6366f1" opacity="0.5"/>
  <rect x="280" y="95" width="300" height="40" rx="10" fill="#1a1f35"/>
  <rect x="300" y="108" width="20" height="14" rx="4" fill="#535b85"/>
  <rect x="330" y="110" width="100" height="10" rx="4" fill="#535b85"/>
  <rect x="280" y="150" width="280" height="180" rx="16" fill="#111523"/>
  <rect x="580" y="150" width="280" height="180" rx="16" fill="#111523"/>
  <rect x="880" y="150" width="280" height="180" rx="16" fill="#111523"/>
  <rect x="300" y="170" width="36" height="36" rx="8" fill="#6366f1" opacity="0.15"/>
  <rect x="300" y="220" width="140" height="8" rx="4" fill="#e0e7ff"/>
  <rect x="300" y="235" width="200" height="6" rx="3" fill="#535b85"/>
  <rect x="300" y="248" width="160" height="6" rx="3" fill="#535b85"/>
  <rect x="300" y="270" width="100" height="20" rx="6" fill="#6366f1" opacity="0.1"/>
  <rect x="410" y="270" width="80" height="20" rx="6" fill="#6366f1" opacity="0.1"/>
  <rect x="300" y="300" width="80" height="6" rx="3" fill="#535b85"/>
  <rect x="600" y="170" width="36" height="36" rx="8" fill="#8b5cf6" opacity="0.15"/>
  <rect x="600" y="220" width="140" height="8" rx="4" fill="#e0e7ff"/>
  <rect x="600" y="235" width="200" height="6" rx="3" fill="#535b85"/>
  <rect x="600" y="248" width="160" height="6" rx="3" fill="#535b85"/>
  <rect x="600" y="270" width="80" height="20" rx="6" fill="#8b5cf6" opacity="0.1"/>
  <rect x="690" y="270" width="60" height="20" rx="6" fill="#8b5cf6" opacity="0.1"/>
  <rect x="600" y="300" width="80" height="6" rx="3" fill="#535b85"/>
  <rect x="900" y="170" width="36" height="36" rx="8" fill="#ec4899" opacity="0.15"/>
  <rect x="900" y="220" width="140" height="8" rx="4" fill="#e0e7ff"/>
  <rect x="900" y="235" width="200" height="6" rx="3" fill="#535b85"/>
  <rect x="900" y="248" width="160" height="6" rx="3" fill="#535b85"/>
  <rect x="900" y="270" width="100" height="20" rx="6" fill="#ec4899" opacity="0.1"/>
  <rect x="1010" y="270" width="60" height="20" rx="6" fill="#ec4899" opacity="0.1"/>
  <rect x="900" y="300" width="80" height="6" rx="3" fill="#535b85"/>
  <rect x="280" y="350" width="280" height="180" rx="16" fill="#111523"/>
  <rect x="580" y="350" width="280" height="180" rx="16" fill="#111523"/>
  <rect x="880" y="350" width="280" height="180" rx="16" fill="#111523"/>
  <rect x="300" y="370" width="36" height="36" rx="8" fill="#10b981" opacity="0.15"/>
  <rect x="300" y="420" width="140" height="8" rx="4" fill="#e0e7ff"/>
  <rect x="300" y="435" width="200" height="6" rx="3" fill="#535b85"/>
  <rect x="300" y="448" width="160" height="6" rx="3" fill="#535b85"/>
  <rect x="300" y="490" width="80" height="6" rx="3" fill="#535b85"/>
  <rect x="600" y="370" width="36" height="36" rx="8" fill="#3b82f6" opacity="0.15"/>
  <rect x="600" y="420" width="140" height="8" rx="4" fill="#e0e7ff"/>
  <rect x="600" y="435" width="200" height="6" rx="3" fill="#535b85"/>
  <rect x="600" y="448" width="160" height="6" rx="3" fill="#535b85"/>
  <rect x="600" y="490" width="80" height="6" rx="3" fill="#535b85"/>
  <rect x="900" y="370" width="36" height="36" rx="8" fill="#f59e0b" opacity="0.15"/>
  <rect x="900" y="420" width="140" height="8" rx="4" fill="#e0e7ff"/>
  <rect x="900" y="435" width="200" height="6" rx="3" fill="#535b85"/>
  <rect x="900" y="448" width="160" height="6" rx="3" fill="#535b85"/>
  <rect x="900" y="490" width="80" height="6" rx="3" fill="#535b85"/>
  <rect x="280" y="555" width="250" height="40" rx="10" fill="#1a1f35"/>
  <rect x="300" y="568" width="20" height="14" rx="4" fill="#535b85"/>
  <rect x="330" y="570" width="80" height="10" rx="4" fill="#535b85"/>
</svg>
